<svg width="74" height="27" viewBox="0 0 74 27" fill="none" xmlns="http://www.w3.org/2000/svg">
<path d="M17.5062 26.2908H23.2504V0.654544H17.3421V15.1636C17.3421 19.0363 14.7708 21.6545 10.7772 21.6545C7.27601 21.6545 5.90834 19.3636 5.90834 16.2545V0.654544H0V17.7818C0 23.3454 2.57122 26.9999 7.9872 26.9999C12.2543 26.9999 15.5367 24.2727 16.9591 19.5272H17.5062V26.2908Z" fill="black"/>
<path d="M36.7446 26.9999C44.1301 26.9999 47.3031 23.9454 47.3031 19.2C47.3031 15.1636 45.0054 12.6 37.4011 11.1818C32.5322 10.3091 31.4381 9.05452 31.4381 7.25453C31.4381 5.34544 32.9699 4.19999 35.9787 4.19999C39.0423 4.19999 40.5741 5.39999 41.2853 8.56362L46.5919 7.41816C45.5524 2.8909 43.1453 0 36.0882 0C29.2498 0 25.858 2.94545 25.858 7.5818C25.858 11.8363 28.2651 14.1272 35.1034 15.4909C40.1912 16.4181 41.6136 17.4 41.6136 19.4181C41.6136 21.5999 39.9723 22.6909 36.8541 22.6909C32.6963 22.6909 30.891 20.7272 30.0704 17.6181L24.7638 18.709C25.6939 23.6181 28.4292 26.9999 36.7446 26.9999Z" fill="black"/>
<path d="M61.0345 27C69.1858 27 74 21.8182 74 13.4182C74 4.96369 68.9123 6.9358e-05 61.0345 6.9358e-05C53.0473 6.9358e-05 47.9595 4.96369 47.9595 13.4182C47.9595 21.8182 52.7737 27 61.0345 27ZM60.9798 4.96369C65.7393 4.96369 68.1464 8.07278 68.1464 13.3637C68.1464 18.6546 65.8487 21.9273 60.9798 21.9273C56.0562 21.9273 53.8679 18.6546 53.8679 13.3637C53.8679 8.07278 56.2203 4.96369 60.9798 4.96369Z" fill="black"/>
</svg>
